<svg xmlns="http://www.w3.org/2000/svg" viewBox="0 0 48 48">
  <rect width="48" height="48" rx="8" fill="#103f34"/>
  <path d="M24 39C15.2 33.4 9 25.5 9 16.9c0-4.8 3-8.2 7.3-8.2 3 0 5.3 1.5 6.7 3.9 1.4-2.4 3.7-3.9 6.7-3.9 4.3 0 7.3 3.4 7.3 8.2C37 25.5 30.8 33.4 24 39Z" fill="none" stroke="#f8f7f1" stroke-width="2.2" stroke-linecap="round" stroke-linejoin="round"/>
  <path d="M24 35V14m0 14c-4.4-5.4-8.6-7-12.8-7.2m12.8 4.5c4.5-5.2 8.4-6.7 12.8-6.8" fill="none" stroke="#f8f7f1" stroke-width="2.2" stroke-linecap="round" stroke-linejoin="round"/>
</svg>
